HIERARCHY
ROOT Hips
{
	OFFSET 0.000000 0.000000 0.000000
	CHANNELS 6 Xposition Yposition Zposition Zrotation Yrotation Xrotation 
	JOINT LeftUpLeg_virtual
	{
		OFFSET 0.000000 0.000000 0.000000
		CHANNELS 3 Zrotation Yrotation Xrotation
		JOINT LeftUpLeg
		{
			OFFSET 10.205400 -3.823500 0.155100
			CHANNELS 3 Zrotation Yrotation Xrotation
			JOINT LeftLeg
			{
				OFFSET 0.708757 -12.982077 0.567790
				CHANNELS 3 Zrotation Yrotation Xrotation
				JOINT LeftFoot
				{
					OFFSET -0.708756 -10.717838 -2.184338
					CHANNELS 3 Zrotation Yrotation Xrotation
					JOINT LeftToeBase
					{
						OFFSET 0.108149 -7.191104 7.560241
						CHANNELS 3 Zrotation Yrotation Xrotation
						End Site
						{
							OFFSET 0.000000 0.000000 0.000000
						}
					}
				}
			}
		}
	}
	JOINT RightUpLeg_virtual
	{
		OFFSET 0.000000 0.000000 0.000000
		CHANNELS 3 Zrotation Yrotation Xrotation
		JOINT RightUpLeg
		{
			OFFSET -10.205400 -3.823500 0.005500
			CHANNELS 3 Zrotation Yrotation Xrotation
			JOINT RightLeg
			{
				OFFSET -0.708756 -12.982134 0.610632
				CHANNELS 3 Zrotation Yrotation Xrotation
				JOINT RightFoot
				{
					OFFSET 0.708754 -10.717769 -1.945823
					CHANNELS 3 Zrotation Yrotation Xrotation
					JOINT RightToeBase
					{
						OFFSET -0.108140 -7.191069 7.372968
						CHANNELS 3 Zrotation Yrotation Xrotation
						End Site
						{
							OFFSET 0.000000 0.000000 0.000000
						}
					}
				}
			}
		}
	}
	JOINT Spine_virtual
	{
		OFFSET 0.000000 0.000000 0.000000
		CHANNELS 3 Zrotation Yrotation Xrotation
		JOINT Spine
		{
			OFFSET 0.000000 6.876099 0.125700
			CHANNELS 3 Zrotation Yrotation Xrotation
			JOINT Spine1
			{
				OFFSET 0.000000 8.022060 0.146608
				CHANNELS 3 Zrotation Yrotation Xrotation
				JOINT Spine2
				{
					OFFSET 0.000000 9.168068 0.167552
					CHANNELS 3 Zrotation Yrotation Xrotation
					JOINT Neck_virtual
					{
						OFFSET 0.000000 0.000000 0.000000
						CHANNELS 3 Zrotation Yrotation Xrotation
						JOINT Neck
						{
							OFFSET 0.000000 10.314075 0.188496
							CHANNELS 3 Zrotation Yrotation Xrotation
							JOINT Head
							{
								OFFSET 0.000000 7.643700 -2.377400
								CHANNELS 3 Zrotation Yrotation Xrotation
								End Site
								{
									OFFSET 0.000000 0.000000 0.000000
								}
							}
						}
					}
					JOINT LeftShoulder_virtual
					{
						OFFSET 0.000000 0.000000 0.000000
						CHANNELS 3 Zrotation Yrotation Xrotation
						JOINT LeftShoulder
						{
							OFFSET 4.392200 8.824978 0.174984
							CHANNELS 3 Zrotation Yrotation Xrotation
							JOINT LeftArm
							{
								OFFSET 8.771219 -2.981674 -0.026999
								CHANNELS 3 Zrotation Yrotation Xrotation
								JOINT LeftForeArm
								{
									OFFSET 8.512804 0.000000 -0.000000
									CHANNELS 3 Zrotation Yrotation Xrotation
									JOINT LeftHand
									{
										OFFSET 18.484802 0.000000 -0.000000
										CHANNELS 3 Zrotation Yrotation Xrotation
										End Site
										{
											OFFSET 0.000000 0.000000 0.000000
										}
									}
								}
							}
						}
					}
					JOINT RightShoulder_virtual
					{
						OFFSET 0.000000 0.000000 0.000000
						CHANNELS 3 Zrotation Yrotation Xrotation
						JOINT RightShoulder
						{
							OFFSET -4.392200 8.824993 0.141379
							CHANNELS 3 Zrotation Yrotation Xrotation
							JOINT RightArm
							{
								OFFSET -8.771282 -2.981682 -0.094208
								CHANNELS 3 Zrotation Yrotation Xrotation
								JOINT RightForeArm
								{
									OFFSET -8.494598 0.000000 0.000000
									CHANNELS 3 Zrotation Yrotation Xrotation
									JOINT RightHand
									{
										OFFSET -18.483803 0.000000 0.000001
										CHANNELS 3 Zrotation Yrotation Xrotation
										End Site
										{
											OFFSET 0.000000 0.000000 0.000000
										}
									}
								}
							}
						}
					}
				}
			}
		}
	}
}
MOTION
Frames: 13
Frame Time: 0.033333
4.429856 36.519459 4.223817 -179.969734 1.730744 -179.700050 -3.520510 -2.246131 8.519387 -1.699642 -0.433498 -16.422316 15.778048 8.405491 22.296008 -4.469292 2.684096 9.658693 0.000000 0.000000 0.000000 0.732276 0.445020 6.631047 1.239759 1.173231 -6.229927 -6.454418 -1.286749 13.640561 5.223708 4.831273 10.251301 0.000000 0.000000 0.000000 0.868733 1.217509 -5.006110 -3.945227 3.662054 -4.092202 -0.088471 -3.018940 4.032247 0.012601 0.019375 0.111817 -0.695770 -0.992618 5.911183 0.465701 -2.755451 8.138800 0.000000 0.000000 0.000000 0.763520 -0.066847 2.999519 5.082864 -1.099414 -4.720762 -7.502802 26.435728 -37.839870 -0.867001 -42.996048 -4.886126 0.000000 0.000000 0.000000 -2.787477 0.585172 2.603329 5.734385 -12.168059 -8.546741 18.520545 -30.242544 -35.488345 -0.190061 38.544615 -4.389015 0.000000 0.000000 0.000000 
4.430403 36.520939 4.227915 179.984186 1.640838 -179.589661 -3.547788 -2.339342 8.644834 -1.585353 -0.435466 -16.248791 15.981912 7.973880 22.454539 -4.702804 2.515840 10.041105 0.000000 0.000000 0.000000 0.612673 0.401818 6.770891 1.466639 0.753258 -6.079562 -6.249405 -1.899585 13.907816 5.244513 4.876179 10.539983 0.000000 0.000000 0.000000 0.836881 1.179322 -5.094301 -3.976122 3.631800 -4.130045 -0.106861 -3.045355 4.042495 0.007566 -0.007818 0.077131 -0.668620 -1.029648 6.035721 0.480260 -2.748988 8.197160 0.000000 0.000000 0.000000 0.786198 -0.156321 3.033120 5.105941 -1.013646 -4.670027 -7.471166 26.476941 -37.767767 -0.858998 -43.020066 -4.903682 0.000000 0.000000 0.000000 -2.752765 0.565145 2.720495 5.727721 -12.151581 -8.597459 18.552594 -30.206064 -35.580149 -0.145888 38.591095 -4.358781 0.000000 0.000000 0.000000 
4.433606 36.520687 4.230870 -179.958423 1.886309 -179.629795 -3.476932 -2.272496 8.677502 -1.561894 -0.421473 -16.221455 15.974928 8.091436 22.482328 -4.745854 2.483254 10.030105 0.000000 0.000000 0.000000 0.665360 0.510307 6.754690 1.470948 0.783629 -6.101765 -6.264032 -1.822573 13.943881 5.249062 4.874653 10.541378 0.000000 0.000000 0.000000 0.893331 1.292187 -5.026041 -3.951582 3.695665 -4.143138 -0.066236 -3.006160 4.001350 0.011431 0.040960 0.071218 -0.681680 -0.898685 6.084419 0.432178 -2.787553 8.274496 0.000000 0.000000 0.000000 0.756797 -0.180320 3.093923 5.080229 -0.993293 -4.705305 -7.433647 26.542009 -37.761544 -0.803695 -43.036223 -4.967093 0.000000 0.000000 0.000000 -2.783502 0.580852 2.727560 5.739805 -12.149257 -8.452691 18.599503 -30.275623 -35.523343 -0.224791 38.623162 -4.457358 0.000000 0.000000 0.000000 
4.433643 36.520142 4.227886 179.971236 1.918486 -179.615711 -3.551750 -2.258007 8.678809 -1.611583 -0.380153 -16.225434 16.003808 8.059384 22.488828 -4.754208 2.477735 10.025693 0.000000 0.000000 0.000000 0.593273 0.512098 6.762542 1.470325 0.772757 -6.107375 -6.242363 -1.768806 13.937825 5.231919 4.869195 10.539767 0.000000 0.000000 0.000000 0.860045 1.267666 -5.025961 -3.965449 3.678343 -4.136158 -0.099174 -3.007247 4.017930 -0.006395 0.033723 0.134423 -0.629128 -1.083398 6.055241 0.494167 -2.749395 8.319754 0.000000 0.000000 0.000000 0.809849 -0.171624 3.015988 5.146613 -0.960197 -4.585339 -7.482027 26.701750 -37.791399 -0.894681 -43.083703 -4.853491 0.000000 0.000000 0.000000 -2.709639 0.595279 2.700588 5.748915 -12.130760 -8.491306 18.625210 -30.323000 -35.451298 -0.286419 38.697150 -4.485616 0.000000 0.000000 0.000000 
4.435751 36.520378 4.220553 -179.951634 1.973105 -179.611640 -3.464917 -2.254821 8.683510 -1.573828 -0.355343 -16.209801 15.988202 8.128358 22.512331 -4.778060 2.462666 10.003896 0.000000 0.000000 0.000000 0.669581 0.518013 6.763206 1.480649 0.778931 -6.105527 -6.264887 -1.777490 13.929989 5.244995 4.873473 10.544498 0.000000 0.000000 0.000000 0.907626 1.270089 -5.008231 -3.924045 3.666500 -4.127953 -0.084983 -3.031232 4.018822 -0.063293 0.028191 0.115645 -0.621754 -1.099940 6.070169 0.474754 -2.759579 8.363492 0.000000 0.000000 0.000000 0.859573 -0.163496 3.056476 5.172521 -0.845304 -4.743532 -7.409329 26.788244 -37.856938 -0.900535 -43.115047 -4.813911 0.000000 0.000000 0.000000 -2.705976 0.585362 2.726908 5.767276 -12.107748 -8.506435 18.609873 -30.386081 -35.404542 -0.207373 38.751259 -4.406806 0.000000 0.000000 0.000000 
4.436047 36.519077 4.210109 179.955459 2.033330 -179.595521 -3.569899 -2.237151 8.674940 -1.603258 -0.308938 -16.193608 16.008983 8.134734 22.514009 -4.803797 2.448975 9.993487 0.000000 0.000000 0.000000 0.581195 0.541124 6.752057 1.465569 0.797896 -6.100757 -6.249745 -1.713611 13.901783 5.233739 4.865860 10.548706 0.000000 0.000000 0.000000 0.856059 1.287604 -5.025541 -3.951786 3.668371 -4.131715 -0.075712 -3.012122 4.015248 0.003900 0.054545 0.100444 -0.627153 -1.258259 6.091097 0.535179 -2.727016 8.376788 0.000000 0.000000 0.000000 0.839817 -0.212801 3.076313 5.196777 -0.860840 -4.661438 -7.388167 26.887289 -37.862870 -0.888915 -43.113356 -4.819737 0.000000 0.000000 0.000000 -2.711387 0.565313 2.725671 5.804488 -12.100172 -8.464916 18.625169 -30.440002 -35.476931 -0.154791 38.767358 -4.367556 0.000000 0.000000 0.000000 
4.436238 36.519039 4.197637 -179.999595 1.964318 -179.595002 -3.523944 -2.283220 8.660203 -1.567895 -0.290408 -16.163328 16.004733 8.160175 22.546231 -4.824719 2.441343 9.981416 0.000000 0.000000 0.000000 0.626586 0.468615 6.764051 1.477380 0.816502 -6.064177 -6.264789 -1.726188 13.858615 5.239299 4.859613 10.544500 0.000000 0.000000 0.000000 0.867171 1.228902 -5.018546 -3.933093 3.644696 -4.122848 -0.050701 -3.048240 4.041791 0.006757 0.029060 0.110462 -0.661867 -1.101116 6.021555 0.475562 -2.781108 8.378436 0.000000 0.000000 0.000000 0.842240 -0.204662 3.030801 5.217096 -0.807913 -4.690551 -7.307435 26.996803 -37.962792 -0.887636 -43.094679 -4.789510 0.000000 0.000000 0.000000 -2.730638 0.515108 2.645312 5.841947 -12.056487 -8.683456 18.595919 -30.485006 -35.339064 -0.101507 38.801471 -4.335454 0.000000 0.000000 0.000000 
4.431803 36.518139 4.181902 179.959570 1.937086 -179.592543 -3.577168 -2.276525 8.648867 -1.617611 -0.237441 -16.141106 16.035211 8.161929 22.561520 -4.862369 2.418480 9.969384 0.000000 0.000000 0.000000 0.583158 0.447752 6.758029 1.477778 0.852500 -6.025153 -6.252120 -1.643766 13.814394 5.185161 4.820421 10.555695 0.000000 0.000000 0.000000 0.847606 1.206660 -5.059002 -3.929809 3.644180 -4.105446 -0.052871 -3.063587 4.061645 0.005364 0.016147 0.131003 -0.599322 -1.219806 6.009371 0.538304 -2.742220 8.474744 0.000000 0.000000 0.000000 0.874320 -0.208394 2.987120 5.266098 -0.788291 -4.718780 -7.300972 27.064457 -37.981391 -0.999682 -43.114005 -4.655091 0.000000 0.000000 0.000000 -2.683217 0.477825 2.666637 5.895625 -11.996823 -8.667109 18.636490 -30.506466 -35.408595 -0.069266 38.760070 -4.307966 0.000000 0.000000 0.000000 
4.425256 36.517864 4.163795 -179.938042 2.021619 -179.602379 -3.475019 -2.241410 8.654598 -1.631153 -0.185609 -16.115261 15.983461 8.184500 22.574492 -4.847328 2.439519 9.935857 0.000000 0.000000 0.000000 0.679843 0.483060 6.729668 1.481254 0.854840 -6.002995 -6.297557 -1.565923 13.794671 5.229840 4.835470 10.565152 0.000000 0.000000 0.000000 0.896583 1.215678 -5.022625 -3.878490 3.654242 -4.142550 -0.006795 -3.080852 3.987673 0.021395 0.016451 0.072534 -0.625858 -1.027891 6.052298 0.513375 -2.768346 8.571731 0.000000 0.000000 0.000000 0.845533 -0.237766 3.019863 5.195891 -0.812712 -4.552181 -7.138385 27.069208 -37.995646 -1.017911 -42.989791 -4.585058 0.000000 0.000000 0.000000 -2.715855 0.528390 2.681178 5.961280 -11.912264 -8.553150 18.678344 -30.584815 -35.394966 -0.148660 38.769424 -4.444298 0.000000 0.000000 0.000000 
4.416842 36.518391 4.142644 -179.945036 2.180593 -179.578159 -3.469512 -2.220580 8.666076 -1.655271 -0.138243 -16.094091 16.036352 8.269904 22.606430 -4.875944 2.421297 9.918688 0.000000 0.000000 0.000000 0.671632 0.512127 6.710462 1.474792 0.898553 -5.986992 -6.283495 -1.427488 13.794125 5.201514 4.806597 10.577451 0.000000 0.000000 0.000000 0.892483 1.247222 -5.034903 -3.852103 3.678845 -4.153613 -0.000341 -3.073019 3.967347 -0.042120 0.028367 0.123499 -0.566036 -1.147289 6.023450 0.518166 -2.779190 8.625685 0.000000 0.000000 0.000000 0.937520 -0.230008 2.974510 5.182214 -0.783407 -4.705281 -7.052984 27.135059 -38.033884 -1.030840 -43.030318 -4.498792 0.000000 0.000000 0.000000 -2.624081 0.538758 2.644036 6.066213 -11.770422 -8.585391 18.693324 -30.621087 -35.336687 -0.147991 38.721493 -4.461340 0.000000 0.000000 0.000000 
4.404976 36.517399 4.121198 -179.956237 2.230480 -179.559403 -3.477435 -2.214954 8.677760 -1.699041 -0.098197 -16.080039 16.031270 8.281660 22.624508 -4.853427 2.445237 9.892790 0.000000 0.000000 0.000000 0.670917 0.512490 6.697704 1.452253 0.923394 -5.981566 -6.295604 -1.350590 13.790875 5.239860 4.821598 10.574287 0.000000 0.000000 0.000000 0.877373 1.234450 -5.055981 -3.829158 3.700979 -4.192821 0.043268 -3.053061 3.950169 0.032545 0.042238 0.156319 -0.558804 -1.105712 5.972696 0.580993 -2.748334 8.643810 0.000000 0.000000 0.000000 0.883653 -0.254056 2.947472 5.097953 -0.877908 -4.572568 -6.942676 27.230132 -37.920179 -1.054572 -42.955459 -4.407846 0.000000 0.000000 0.000000 -2.645288 0.500257 2.536729 6.103101 -11.735987 -8.607869 18.776067 -30.697411 -35.459289 -0.147532 38.779065 -4.513739 0.000000 0.000000 0.000000 
4.393997 36.515038 4.100560 -179.955390 2.202632 -179.546795 -3.498992 -2.256454 8.680780 -1.716831 -0.074705 -16.066603 16.027527 8.315912 22.652459 -4.857007 2.446534 9.882966 0.000000 0.000000 0.000000 0.672164 0.446955 6.699549 1.408697 0.960261 -5.980331 -6.302731 -1.295310 13.762446 5.276584 4.830425 10.548402 0.000000 0.000000 0.000000 0.850034 1.196577 -5.091247 -3.814135 3.684087 -4.208154 0.046394 -3.059204 3.993698 0.015425 0.037350 0.054876 -0.534247 -1.139503 5.894029 0.596040 -2.764010 8.606310 0.000000 0.000000 0.000000 0.922511 -0.223793 2.969590 5.008993 -0.913055 -4.769523 -6.836323 27.255334 -37.815226 -1.147790 -42.951231 -4.241441 0.000000 0.000000 0.000000 -2.633213 0.473210 2.599243 6.159921 -11.667601 -8.664237 18.844687 -30.738686 -35.552374 -0.146415 38.792900 -4.586135 0.000000 0.000000 0.000000 
4.384716 36.514668 4.083700 -179.958901 2.257695 -179.559198 -3.484193 -2.262278 8.695168 -1.756637 -0.050754 -16.038780 16.085273 8.362359 22.685541 -4.876143 2.430148 9.864454 0.000000 0.000000 0.000000 0.667022 0.431533 6.692015 1.394989 1.005990 -5.967082 -6.286870 -1.229550 13.776282 5.250577 4.804647 10.542049 0.000000 0.000000 0.000000 0.857159 1.201013 -5.058202 -3.771096 3.713671 -4.257864 0.077273 -3.027823 3.915333 0.028797 0.047635 0.177304 -0.509788 -1.099699 5.913881 0.596489 -2.792148 8.876965 0.000000 0.000000 0.000000 0.927146 -0.219189 2.906151 4.873859 -1.022674 -4.777628 -6.770321 27.356728 -37.693546 -1.161697 -42.984467 -4.135863 0.000000 0.000000 0.000000 -2.614992 0.465575 2.466349 6.199698 -11.604907 -8.661274 18.945630 -30.923343 -35.735075 -0.035585 38.971314 -4.516840 0.000000 0.000000 0.000000 
